<svg id="Layer_1" data-name="Layer 1" xmlns="http://www.w3.org/2000/svg" viewBox="0 0 287.28 88.72"><defs><style>.cls-1{fill:#e7c45b;}.cls-2{fill:#c35947;}.cls-3{fill:#94133a;}</style></defs><title>logo_color</title><g id="Capa_2" data-name="Capa 2"><g id="Primer_plano" data-name="Primer plano"><circle class="cls-1" cx="157.43" cy="9.86" r="9.86"/><path class="cls-2" d="M12.59,31.8,69.91,65.21,81.67,25.33l24.11,11.74,18.55-18.25L150.92,34l15.16-14.83,8,4.94,26-18.86L221.42,73h15.15l38.35-44.52,13,11.44L240.6,88.72H207.21l-13.91-55L182.17,44.49l-8.66-7.43L154.64,55.32l-26-13.61L109.8,60,94.34,51.61,83.05,83.45H60.94l-60.3-39C5,31.48,9.55,29.78,12.59,31.8Z" transform="translate(-0.64 0)"/><polygon class="cls-3" points="173.44 27.75 182.11 35.48 195.39 24.96 213.95 84.96 239.62 84.96 277.97 43.52 274.3 28.42 287.28 39.85 239.96 88.72 206.57 88.72 192.66 33.67 181.53 44.49 172.86 37.07 164.61 45.05 173.44 27.75"/><polygon class="cls-3" points="128.29 30.2 153.96 45.05 154 55.32 154 55.3 128.02 41.71 128.29 30.2"/><polygon class="cls-3" points="93.7 51.61 89 36.03 108.78 47.16 109.16 59.95 93.7 51.61 93.7 51.61"/><path class="cls-3" d="M16.34,46.4l59.49,37H60.94L.64,44.4c7.36-21.73,15-11.91,15.65-5.93A35.64,35.64,0,0,1,16.34,46.4Z" transform="translate(-0.64 0)"/></g></g></svg>